<svg version="1.1" xmlns="http://www.w3.org/2000/svg" xmlns:xlink="http://www.w3.org/1999/xlink" >

    <symbol id="right_arrow" data-name="Right Arrow" class="cls-1" viewBox="0 0 15 27">
        <g>
            <path d="M931.066,404.957l-12.042-12.024a1.478,1.478,0,0,0-2.524,1.043L922.818,406,916.5,418.024a1.479,1.479,0,0,0,2.524,1.044l12.042-12.024A1.471,1.471,0,0,0,931.066,404.957Z" transform="translate(-916.5 -392.5)"/>
        </g>
    </symbol>
    
    <symbol id="left_arrow" data-name="Left Arrow" class="cls-1" viewBox="0 0 15 27">
        <g>
            <path d="M68.934,404.957l12.042-12.024a1.478,1.478,0,0,1,2.524,1.043L77.182,406,83.5,418.024a1.479,1.479,0,0,1-2.524,1.044L68.934,407.044A1.472,1.472,0,0,1,68.934,404.957Z" transform="translate(-68.5 -392.5)"/>
        </g>
    </symbol>


</svg>